<svg viewBox="-106 0 512 512.00004" xmlns="http://www.w3.org/2000/svg"><path d="m285.074219 223.652344v-181.375c0-23.3125-19.351563-42.277344-43.136719-42.277344-23.78125 0-43.132812 18.964844-43.132812 42.277344v108.75c-6.691407-4.183594-14.625-6.621094-23.132813-6.621094-13.304687 0-25.21875 5.9375-33.136719 15.242188-7.917968-9.304688-19.832031-15.242188-33.136718-15.242188-8.507813 0-16.441407 2.4375-23.128907 6.621094v-59.550782c0-23.3125-19.351562-42.277343-43.136719-42.277343-23.785156 0-43.132812 18.96875-43.132812 42.28125 0 5.519531 4.476562 10 10 10s10-4.480469 10-10c0-12.285157 10.378906-22.28125 23.132812-22.28125 12.757813 0 23.136719 9.996093 23.136719 22.28125v197.085937c0 23.3125 19.347657 42.277344 43.132813 42.277344.085937 0 .171875-.007812.257812-.007812-2.160156 3.230468-4.179687 6.574218-6.03125 10.042968-2.605468 4.871094-.761718 10.929688 4.109375 13.53125 1.5.800782 3.109375 1.179688 4.699219 1.179688 3.574219 0 7.03125-1.917969 8.832031-5.289063 17.269531-32.339843 51.289063-52.425781 88.785157-52.425781h13.679687c5.519531 0 10-4.480469 10-10 0-5.523438-4.480469-10-10-10h-48.066406c-12.753907 0-23.132813-9.996094-23.132813-22.28125 0-12.28125 10.378906-22.273438 23.132813-22.273438h81.199219c4.585937 0 8.863281 1.296876 12.464843 3.527344.214844.152344.441407.289063.667969.425782 6.035156 4.023437 10 10.734374 10 18.324218v77.5c0 10.191406-1.257812 20.335938-3.738281 30.140625-1.351563 5.351563 1.890625 10.789063 7.246093 12.144531.824219.207032 1.644532.308594 2.457032.308594 4.472656 0 8.542968-3.019531 9.6875-7.550781 2.886718-11.40625 4.347656-23.195313 4.347656-35.039063v-77.503906c0-12.75-5.792969-24.1875-14.925781-31.945312zm-175.675781 87.191406c-12.753907 0-23.132813-9.992188-23.132813-22.277344l.003906-101.921875c.019531-12.265625 10.390625-22.234375 23.132813-22.234375 12.753906 0 23.132812 9.988282 23.132812 22.273438v101.882812c0 12.285156-10.378906 22.277344-23.136718 22.277344zm43.136718-90.902344v-33.257812c0-12.285156 10.378906-22.277344 23.136719-22.277344 12.753906 0 23.132813 9.992188 23.132813 22.277344v26.636718h-23.136719c-8.507813 0-16.441407 2.4375-23.132813 6.621094zm66.269532-6.621094v-171.042968c0-12.285156 10.378906-22.277344 23.136718-22.277344 12.753906 0 23.132813 9.992188 23.132813 22.277344v171.820312c-2.660157-.503906-5.402344-.777344-8.207031-.777344zm0 0"/><path d="m245.75 418.4375c-9.644531 10.191406-20.839844 18.734375-33.28125 25.382812-.589844.316407-1.140625.6875-1.652344 1.109376-.1875.152343-.359375.316406-.53125.480468-.058594.058594-.125.109375-.179687.167969-.167969.167969-.324219.347656-.480469.523437-.054688.066407-.117188.128907-.171875.195313-.128906.15625-.246094.324219-.367187.488281-.074219.101563-.148438.195313-.21875.296875-.085938.136719-.167969.277344-.25.414063-.085938.144531-.175782.285156-.253907.433594-.054687.097656-.097656.207031-.148437.308593-.09375.1875-.1875.378907-.269532.574219-.027343.070312-.050781.140625-.078124.210938-.089844.234374-.179688.464843-.25.707031-.015626.050781-.027344.105469-.042969.160156-.070313.253906-.140625.507813-.195313.769531-.128906.648438-.195312 1.308594-.195312 1.972656v.007813 39.359375h-138.027344v-35.753906c4.121094 2.589844 8.375 4.996094 12.757812 7.1875 1.4375.722656 2.964844 1.0625 4.472657 1.0625 3.664062 0 7.195312-2.023438 8.949219-5.523438 2.472656-4.9375.472656-10.945312-4.464844-13.417968-8.945313-4.480469-17.183594-9.863282-24.648438-15.972657-.46875-.46875-.988281-.886719-1.539062-1.253906-28.105469-23.722656-44.683594-58.140625-44.683594-95.230469v-172.652344c0-5.523437-4.476562-10-10-10s-10 4.476563-10 10v172.652344c0 27.390625 7.890625 54.144532 22.8125 77.378906 7.339844 11.429688 16.222656 21.765626 26.34375 30.761719v60.761719c0 5.523438 4.476562 10 10 10h158.027344c5.519531 0 10-4.476562 10-10v-43.503906c12.242187-7.183594 23.355468-16.019532 33.097656-26.316406 3.792969-4.015626 3.617188-10.34375-.398438-14.140626-4.011718-3.792968-10.339843-3.617187-14.132812.398438zm0 0"/><path d="m280.996094 382.257812c-4.964844-2.414062-10.953125-.351562-13.371094 4.613282l-.207031.425781c-2.433594 4.960937-.382813 10.949219 4.578125 13.382813 1.414062.695312 2.914062 1.023437 4.390625 1.023437 3.699219 0 7.25-2.058594 8.988281-5.601563l.230469-.472656c2.417969-4.964844.355469-10.949218-4.609375-13.371094zm0 0"/><path d="m10 141.714844c5.523438 0 10-4.480469 10-10v-.273438c0-5.519531-4.476562-10-10-10s-10 4.480469-10 10v.273438c0 5.519531 4.476562 10 10 10zm0 0"/></svg>