<?xml version="1.0"?>
<svg xmlns="http://www.w3.org/2000/svg" viewBox="0 0 512 512" width="512" height="512"><g id="Tickets"><g id="Outline"><circle cx="392" cy="288" r="8"/><circle cx="88" cy="304" r="8"/><circle cx="88" cy="336" r="8"/><circle cx="88" cy="368" r="8"/><circle cx="88" cy="400" r="8"/><circle cx="88" cy="432" r="8"/><circle cx="392" cy="320" r="8"/><circle cx="392" cy="352" r="8"/><circle cx="392" cy="384" r="8"/><circle cx="392" cy="416" r="8"/><circle cx="392" cy="448" r="8"/><path d="M335.936,232c0-10.641-17-10.722-17,0C318.936,242.641,335.936,242.722,335.936,232Z"/><path d="M504,256c-11.458,0-17.714-1.146-20.284-3.716S480,243.458,480,232a8,8,0,0,0-8-8H416a8,8,0,0,0-8,8v8a8,8,0,0,1-16,0v-8a8,8,0,0,0-8-8H359.936a8,8,0,1,0,0,16H376a24,24,0,0,0,48,0h40.237c1.436,22.11,9.653,30.327,31.763,31.763V464.237c-22.11,1.436-30.327,9.653-31.763,31.763H424a24,24,0,0,0-48,0H47.763C46.327,473.89,38.11,465.673,16,464.237V271.763C38.11,270.327,46.327,262.11,47.763,240H294.936a8,8,0,0,0,0-16H40a8,8,0,0,0-8,8c0,11.458-1.146,17.714-3.716,20.284S19.458,256,8,256a8,8,0,0,0-8,8V472a8,8,0,0,0,8,8c11.458,0,17.714,1.146,20.284,3.716S32,492.542,32,504a8,8,0,0,0,8,8H384a8,8,0,0,0,8-8v-8a8,8,0,0,1,16,0v8a8,8,0,0,0,8,8h56a8,8,0,0,0,8-8c0-11.458,1.146-17.714,3.716-20.284S492.542,480,504,480a8,8,0,0,0,8-8V264A8,8,0,0,0,504,256Z"/><path d="M59.593,261.159c-4.214,11.091-11.343,18.22-22.434,22.434A8,8,0,0,0,32,291.071V444.929a8,8,0,0,0,5.159,7.478c11.091,4.214,18.22,11.343,22.434,22.434A8,8,0,0,0,67.071,480H360a8,8,0,0,0,8-8V264a8,8,0,0,0-8-8H67.071A8,8,0,0,0,59.593,261.159ZM352,272V464H72.319A51.7,51.7,0,0,0,48,439.681V296.319A51.7,51.7,0,0,0,72.319,272Z"/><path d="M120,312h96a8,8,0,0,0,0-16H120a8,8,0,0,0,0,16Z"/><path d="M120,344h96a8,8,0,0,0,0-16H120a8,8,0,0,0,0,16Z"/><path d="M120,376h96a8,8,0,0,0,0-16H120a8,8,0,0,0,0,16Z"/><path d="M120,408h96a8,8,0,0,0,0-16H120a8,8,0,0,0,0,16Z"/><path d="M120,440h96a8,8,0,0,0,0-16H120a8,8,0,0,0,0,16Z"/><path d="M424,448h48a8,8,0,0,0,8-8V296a8,8,0,0,0-8-8H424a8,8,0,0,0-8,8V440A8,8,0,0,0,424,448Zm8-144h32V432H432Z"/><circle cx="294.696" cy="104.167" r="8"/><circle cx="317.324" cy="126.794" r="8"/><circle cx="339.951" cy="149.421" r="8"/><path d="M356.922,166.392a8,8,0,1,0,11.314,0A8,8,0,0,0,356.922,166.392Z"/><path d="M379.549,189.019a8,8,0,1,0,11.314,0A8,8,0,0,0,379.549,189.019Z"/><path d="M392.715,51.8a8.009,8.009,0,0,0,5.657-13.656l-.707-.707a8,8,0,0,0-11.313,0C380.818,42.964,385.945,51.8,392.715,51.8Z"/><path d="M492.831,155.225c-17.276,19.42-12.945,32.226,5.17,50.42a8,8,0,0,0,11.338-11.29c-7.885-7.919-11.4-13.059-11.4-16.664,0-3.625,3.614-8.853,11.718-16.952a8,8,0,0,0,0-11.316L421,60.766A8,8,0,1,0,409.686,72.08Z"/><path d="M125.337,205.657,249.445,81.539A24,24,0,0,0,283.389,47.6l28.425-28.426c16.235,14.44,28.469,14.669,44.961,0l6.949,6.949A8,8,0,0,0,375.038,14.8C363.882,4.48,362.4,0,356.919,0a8,8,0,0,0-5.658,2.345c-8.1,8.1-13.331,11.718-16.966,11.718s-8.867-3.614-16.967-11.718a8.006,8.006,0,0,0-11.315,0C266.194,43.3,264.067,41.738,264.07,47.6c0,5.055,4.063,6.783,8,11.3a8,8,0,1,1-11.317,11.316l-5.66-5.65a8,8,0,0,0-11.309,0l-129.76,129.77a8,8,0,0,0,11.314,11.314Z"/><path d="M350.937,194.343C257.6,102.191,261.279,101.82,255.1,101.82c-6.116,0-2.3.176-95.837,92.523a8,8,0,0,0,11.314,11.314L255.1,121.134C342.239,207.022,338.979,208,345.28,208A8.01,8.01,0,0,0,350.937,194.343Z"/><path d="M430.461,194.676,464.4,160.735a8,8,0,0,0,0-11.314L362.579,47.6a8,8,0,0,0-11.314,0C317.6,82.369,314.98,81.376,314.98,87.2c0,6.227-.4,1.719,104.167,107.48A8,8,0,0,0,430.461,194.676ZM356.922,64.568l90.51,90.51L424.8,177.706,334.294,87.2Z"/></g></g></svg>
