<?xml version="1.0" encoding="iso-8859-1"?>
<!-- Generator: Adobe Illustrator 19.0.0, SVG Export Plug-In . SVG Version: 6.00 Build 0)  -->
<svg version="1.1" id="Capa_1" xmlns="http://www.w3.org/2000/svg" xmlns:xlink="http://www.w3.org/1999/xlink" x="0px" y="0px"
	 viewBox="0 0 512 512" style="enable-background:new 0 0 512 512;" xml:space="preserve">
<g>
	<g>
		<g>
			<rect x="352" width="32" height="32"/>
			<path d="M416,0v32h64v448h-32V358.112l-128-64v-15.488l32-32V176c0-53.019-42.981-96-96-96s-96,42.981-96,96v70.624l32,32v15.488
				l-128,64V480H32V32h224V0H0v512h512V0H416z M416,480h-48v-64h-32v64H176v-64h-32v64H96V377.888l128-64v-48.512l-32-32V176
				c0-35.346,28.654-64,64-64c35.346,0,64,28.654,64,64v57.376l-32,32v48.512l128,64V480z"/>
			<rect x="288" width="32" height="32"/>
		</g>
	</g>
</g>
<g>
</g>
<g>
</g>
<g>
</g>
<g>
</g>
<g>
</g>
<g>
</g>
<g>
</g>
<g>
</g>
<g>
</g>
<g>
</g>
<g>
</g>
<g>
</g>
<g>
</g>
<g>
</g>
<g>
</g>
</svg>
